<?xml version="1.0" encoding="UTF-8" standalone="no"?>
<svg
   xmlns:dc="http://purl.org/dc/elements/1.1/"
   xmlns:cc="http://creativecommons.org/ns#"
   xmlns:rdf="http://www.w3.org/1999/02/22-rdf-syntax-ns#"
   xmlns:svg="http://www.w3.org/2000/svg"
   xmlns="http://www.w3.org/2000/svg"
   xmlns:sodipodi="http://sodipodi.sourceforge.net/DTD/sodipodi-0.dtd"
   xmlns:inkscape="http://www.inkscape.org/namespaces/inkscape"
   sodipodi:docname="macacos.svg"
   inkscape:version="1.0 (4035a4fb49, 2020-05-01)"
   id="svg8"
   version="1.1"
   viewBox="0 0 320 240"
   height="240mm"
   width="320mm">
  <defs
     id="defs2">
    <inkscape:path-effect
       effect="spiro"
       id="path-effect932"
       is_visible="true"
       lpeversion="1" />
    <inkscape:path-effect
       lpeversion="1"
       is_visible="true"
       id="path-effect915"
       effect="spiro" />
  </defs>
  <sodipodi:namedview
     inkscape:window-maximized="1"
     inkscape:window-y="-8"
     inkscape:window-x="-8"
     inkscape:window-height="705"
     inkscape:window-width="1366"
     inkscape:guide-bbox="true"
     showguides="true"
     width="240mm"
     units="mm"
     showgrid="false"
     inkscape:document-rotation="0"
     inkscape:current-layer="layer1"
     inkscape:document-units="mm"
     inkscape:cy="398.79602"
     inkscape:cx="245.4344"
     inkscape:zoom="0.49497475"
     inkscape:pageshadow="2"
     inkscape:pageopacity="0.0"
     borderopacity="1.0"
     bordercolor="#666666"
     pagecolor="#ffffff"
     id="base" />
  <metadata
     id="metadata5">
    <rdf:RDF>
      <cc:Work
         rdf:about="">
        <dc:format>image/svg+xml</dc:format>
        <dc:type
           rdf:resource="http://purl.org/dc/dcmitype/StillImage" />
        <dc:title></dc:title>
      </cc:Work>
    </rdf:RDF>
  </metadata>
  <g
     id="layer1"
     inkscape:groupmode="layer"
     inkscape:label="Layer 1">
    <path
       style="fill:none;stroke:#552200;stroke-width:2.36597;stroke-linecap:round;stroke-linejoin:miter;stroke-miterlimit:4;stroke-dasharray:none;stroke-opacity:1"
       d="m 144.23301,115.64365 c -0.94247,-1.35885 -2.45091,-2.3117 -4.08286,-2.57904 -1.63195,-0.26734 -3.36557,0.1544 -4.69235,1.14151 -1.32678,0.98711 -2.22896,2.52639 -2.44192,4.16632 -0.21295,1.63993 0.26618,3.35858 1.29684,4.65182 0.88209,1.10681 2.11031,1.87429 3.1651,2.81797 0.52739,0.47184 1.01721,0.99507 1.37873,1.60342 0.36151,0.60834 0.59037,1.30822 0.57075,2.0156 -0.0225,0.81296 -0.37401,1.59575 -0.89065,2.22384 -0.51664,0.62809 -1.1909,1.11138 -1.9067,1.49744 -1.43159,0.77214 -3.04409,1.17784 -4.44137,2.01046 -1.59451,0.95015 -2.85333,2.45164 -3.51068,4.18748 -0.65735,1.73585 -0.70889,3.69453 -0.14372,5.46253 0.56516,1.76801 1.74328,3.33362 3.28563,4.3663 1.54235,1.03268 3.4387,1.52558 5.28869,1.37465"
       id="path930"
       inkscape:path-effect="#path-effect932"
       inkscape:original-d="m 144.23301,115.64365 c -3.24749,2.46776 -6.61339,4.92029 -9.92029,7.38061 -3.30691,2.46031 3.40986,4.29122 5.11458,6.43699 1.70472,2.14577 -4.82555,3.82142 -7.23872,5.73174 -2.41317,1.91032 3.28021,10.26091 4.91992,15.39096" />
    <path
       inkscape:original-d="m 53.851909,176.21189 c -2.866114,-2.90201 -5.732352,-5.92339 -8.598716,-8.88526 -2.866365,-2.96189 -3.815472,3.93495 -5.723396,5.90224 -1.907923,1.96729 -4.411657,-4.29241 -6.617674,-6.43881"
       inkscape:path-effect="#path-effect915"
       id="path913"
       d="m 53.851909,176.21189 c 0.93254,-1.17178 1.421464,-2.68821 1.348998,-4.18402 -0.07247,-1.49581 -0.705684,-2.95788 -1.747126,-4.03403 -1.041443,-1.07615 -2.481978,-1.75693 -3.974609,-1.87838 -1.492631,-0.12144 -3.024271,0.31753 -4.225979,1.21117 -1.108055,0.824 -1.906729,1.98522 -2.736304,3.08911 -0.829574,1.10389 -1.748664,2.20235 -2.987092,2.81313 -0.900533,0.44413 -1.93966,0.60194 -2.931448,0.44519 -0.991788,-0.15676 -1.931595,-0.62735 -2.651259,-1.32756 -0.719665,-0.70021 -1.215819,-1.62678 -1.399684,-2.6139 -0.183866,-0.98712 -0.05458,-2.03018 0.364717,-2.94254"
       style="fill:none;stroke:#552200;stroke-width:2.36597;stroke-linecap:round;stroke-linejoin:miter;stroke-miterlimit:4;stroke-dasharray:none;stroke-opacity:1" />
    <path
       style="fill:none;stroke:#803300;stroke-width:4.73194;stroke-linecap:round;stroke-linejoin:miter;stroke-miterlimit:4;stroke-dasharray:none;stroke-opacity:1"
       d="M 62.875872,161.75787 86.051667,138.46315 77.951191,112.99906"
       id="path911" />
    <path
       id="path909"
       d="M 53.352982,161.74498 30.177174,138.45025 38.277649,112.98616"
       style="fill:none;stroke:#803300;stroke-width:4.73194;stroke-linecap:round;stroke-linejoin:miter;stroke-miterlimit:4;stroke-dasharray:none;stroke-opacity:1" />
    <path
       transform="matrix(0.42513647,-0.20777774,0.25205156,0.51572568,19.779912,83.42815)"
       inkscape:transform-center-y="-0.58074397"
       inkscape:transform-center-x="-1.8869772"
       d="M 12.561667,106.64055 26.06392,82.808844 39.951652,106.41799 Z"
       inkscape:randomized="0"
       inkscape:rounded="0"
       inkscape:flatsided="true"
       sodipodi:arg2="3.6570661"
       sodipodi:arg1="2.6098686"
       sodipodi:r2="7.9070683"
       sodipodi:r1="15.814137"
       sodipodi:cy="98.622459"
       sodipodi:cx="26.192413"
       sodipodi:sides="3"
       id="path48"
       style="fill:#803300;fill-opacity:1;stroke-width:0.264583"
       sodipodi:type="star" />
    <path
       sodipodi:type="star"
       style="fill:#803300;fill-opacity:1;stroke-width:0.264583"
       id="path50"
       sodipodi:sides="3"
       sodipodi:cx="26.192413"
       sodipodi:cy="98.622459"
       sodipodi:r1="15.814137"
       sodipodi:r2="7.9070683"
       sodipodi:arg1="2.6098686"
       sodipodi:arg2="3.6570661"
       inkscape:flatsided="true"
       inkscape:rounded="0"
       inkscape:randomized="0"
       d="M 12.561667,106.64055 26.06392,82.808844 39.951652,106.41799 Z"
       inkscape:transform-center-x="-1.6319919"
       inkscape:transform-center-y="-0.26022224"
       transform="matrix(0.40439422,-0.19764034,0.20311735,0.41560079,28.216796,92.25383)" />
    <ellipse
       style="fill:#803300;fill-opacity:1;stroke-width:0.125199"
       id="ellipse40"
       cx="72.973175"
       cy="131.61682"
       rx="8.0941019"
       ry="8.2838087" />
    <ellipse
       ry="4.8058739"
       rx="4.5529323"
       cy="131.30064"
       cx="72.720245"
       id="ellipse42"
       style="fill:#552200;fill-opacity:1;stroke-width:0.0715209" />
    <ellipse
       ry="8.2838087"
       rx="8.0941019"
       cy="131.8596"
       cx="43.252644"
       id="path36"
       style="fill:#803300;fill-opacity:1;stroke-width:0.125199" />
    <rect
       style="fill:#803300;fill-opacity:1;stroke-width:0.102914"
       id="rect34"
       width="8.0941019"
       height="16.567616"
       x="57.536156"
       y="164.01146"
       ry="4.047051" />
    <rect
       ry="4.1102862"
       y="164.01146"
       x="48.8148"
       height="16.567616"
       width="8.2205725"
       id="rect32"
       style="fill:#803300;fill-opacity:1;stroke-width:0.103715" />
    <rect
       ry="0"
       y="147.2359"
       x="48.817345"
       height="27.444063"
       width="16.820557"
       id="rect28"
       style="fill:#803300;fill-opacity:1;stroke-width:0.139611" />
    <ellipse
       style="fill:#552200;fill-opacity:1;stroke-width:0.0715209"
       id="ellipse38"
       cx="42.999702"
       cy="131.54343"
       rx="4.5529323"
       ry="4.8058739" />
    <ellipse
       ry="15.302912"
       rx="15.935265"
       cy="140.78592"
       cx="57.796734"
       id="path10"
       style="fill:#803300;stroke-width:0.125199" />
    <rect
       ry="2.0235255"
       y="148.75356"
       x="52.242203"
       height="23.523485"
       width="10.370569"
       id="rect30"
       style="fill:#a05a2c;fill-opacity:1;stroke-width:0.125199" />
    <ellipse
       inkscape:transform-center-y="-0.19574092"
       inkscape:transform-center-x="0.19737021"
       style="fill:#ff9955;stroke-width:0.0972882"
       id="ellipse12"
       cx="57.576355"
       cy="148.70752"
       rx="12.434292"
       ry="11.842182" />
    <ellipse
       ry="5.540606"
       rx="5.8176365"
       cy="136.88943"
       cx="52.484966"
       id="ellipse14"
       style="fill:#ff9955;stroke-width:0.0455184"
       inkscape:transform-center-x="0.09234654"
       inkscape:transform-center-y="-0.091574616" />
    <ellipse
       inkscape:transform-center-y="-0.091574616"
       inkscape:transform-center-x="0.092344182"
       style="fill:#ff9955;stroke-width:0.0455184"
       id="ellipse16"
       cx="62.602596"
       cy="136.88943"
       rx="5.8176365"
       ry="5.540606" />
    <path
       d="m 49.206578,135.5804 a 3.9205813,3.7338868 0 0 0 -0.515714,1.85109 3.9205813,3.7338868 0 0 0 3.920547,3.73397 3.9205813,3.7338868 0 0 0 3.920546,-3.73397 3.9205813,3.7338868 0 0 0 -0.0039,-0.1631 9.7188551,3.6869086 0 0 1 -0.08852,-0.003 9.7188551,3.6869086 0 0 1 -0.106127,-0.004 9.7188551,3.6869086 0 0 1 -0.10588,-0.005 9.7188551,3.6869086 0 0 1 -0.105881,-0.005 9.7188551,3.6869086 0 0 1 -0.105637,-0.005 9.7188551,3.6869086 0 0 1 -0.105393,-0.006 9.7188551,3.6869086 0 0 1 -0.105393,-0.006 9.7188551,3.6869086 0 0 1 -0.105147,-0.007 9.7188551,3.6869086 0 0 1 -0.104903,-0.007 9.7188551,3.6869086 0 0 1 -0.104659,-0.008 9.7188551,3.6869086 0 0 1 -0.104414,-0.008 9.7188551,3.6869086 0 0 1 -0.104169,-0.009 9.7188551,3.6869086 0 0 1 -0.104171,-0.009 9.7188551,3.6869086 0 0 1 -0.10368,-0.009 9.7188551,3.6869086 0 0 1 -0.103436,-0.01 9.7188551,3.6869086 0 0 1 -0.102948,-0.0103 9.7188551,3.6869086 0 0 1 -0.102946,-0.0108 9.7188551,3.6869086 0 0 1 -0.102458,-0.0112 9.7188551,3.6869086 0 0 1 -0.102214,-0.0115 9.7188551,3.6869086 0 0 1 -0.101969,-0.012 9.7188551,3.6869086 0 0 1 -0.10148,-0.0125 9.7188551,3.6869086 0 0 1 -0.100991,-0.013 9.7188551,3.6869086 0 0 1 -0.100746,-0.0132 9.7188551,3.6869086 0 0 1 -0.100257,-0.0137 9.7188551,3.6869086 0 0 1 -0.100013,-0.0142 9.7188551,3.6869086 0 0 1 -0.09952,-0.0147 9.7188551,3.6869086 0 0 1 -0.09928,-0.0149 9.7188551,3.6869086 0 0 1 -0.09855,-0.0154 9.7188551,3.6869086 0 0 1 -0.0983,-0.0156 9.7188551,3.6869086 0 0 1 -0.09757,-0.0161 9.7188551,3.6869086 0 0 1 -0.09732,-0.0166 9.7188551,3.6869086 0 0 1 -0.09683,-0.0171 9.7188551,3.6869086 0 0 1 -0.09634,-0.0174 9.7188551,3.6869086 0 0 1 -0.09586,-0.0179 9.7188551,3.6869086 0 0 1 -0.09512,-0.0181 9.7188551,3.6869086 0 0 1 -0.09488,-0.0186 9.7188551,3.6869086 0 0 1 -0.09414,-0.0191 9.7188551,3.6869086 0 0 1 -0.09366,-0.0193 9.7188551,3.6869086 0 0 1 -0.09292,-0.0198 9.7188551,3.6869086 0 0 1 -0.09268,-0.02 9.7188551,3.6869086 0 0 1 -0.09194,-0.0205 9.7188551,3.6869086 0 0 1 -0.09121,-0.021 9.7188551,3.6869086 0 0 1 -0.09072,-0.0213 9.7188551,3.6869086 0 0 1 -0.08999,-0.0215 9.7188551,3.6869086 0 0 1 -0.0895,-0.0223 9.7188551,3.6869086 0 0 1 -0.08876,-0.0223 9.7188551,3.6869086 0 0 1 -0.08828,-0.0227 9.7188551,3.6869086 0 0 1 -0.0873,-0.0232 9.7188551,3.6869086 0 0 1 -0.08681,-0.0235 9.7188551,3.6869086 0 0 1 -0.08608,-0.024 9.7188551,3.6869086 0 0 1 -0.08559,-0.0242 9.7188551,3.6869086 0 0 1 -0.08461,-0.0245 9.7188551,3.6869086 0 0 1 -0.08412,-0.0249 9.7188551,3.6869086 0 0 1 -0.08314,-0.0254 9.7188551,3.6869086 0 0 1 -0.08265,-0.0257 9.7188551,3.6869086 0 0 1 -0.08167,-0.0259 9.7188551,3.6869086 0 0 1 -0.08118,-0.0262 9.7188551,3.6869086 0 0 1 -0.0802,-0.0267 9.7188551,3.6869086 0 0 1 -0.07947,-0.0271 9.7188551,3.6869086 0 0 1 -0.07874,-0.0271 9.7188551,3.6869086 0 0 1 -0.078,-0.0276 9.7188551,3.6869086 0 0 1 -0.07703,-0.0281 9.7188551,3.6869086 0 0 1 -0.07629,-0.0281 9.7188551,3.6869086 0 0 1 -0.07556,-0.0286 9.7188551,3.6869086 0 0 1 -0.07458,-0.0289 9.7188551,3.6869086 0 0 1 -0.07385,-0.0293 9.7188551,3.6869086 0 0 1 -0.07287,-0.0296 9.7188551,3.6869086 0 0 1 -0.07214,-0.0298 9.7188551,3.6869086 0 0 1 -0.07116,-0.0301 9.7188551,3.6869086 0 0 1 -0.07042,-0.0303 9.7188551,3.6869086 0 0 1 -0.06945,-0.0308 9.7188551,3.6869086 0 0 1 -0.06847,-0.0308 9.7188551,3.6869086 0 0 1 -0.06773,-0.0313 9.7188551,3.6869086 0 0 1 -0.06676,-0.0315 9.7188551,3.6869086 0 0 1 -0.06578,-0.032 9.7188551,3.6869086 0 0 1 -0.06505,-0.032 9.7188551,3.6869086 0 0 1 -0.06407,-0.0323 9.7188551,3.6869086 0 0 1 -0.06284,-0.0328 9.7188551,3.6869086 0 0 1 -0.06211,-0.0328 9.7188551,3.6869086 0 0 1 -0.06113,-0.0333 9.7188551,3.6869086 0 0 1 -0.0604,-0.0333 9.7188551,3.6869086 0 0 1 -0.05917,-0.0337 9.7188551,3.6869086 0 0 1 -0.0582,-0.034 9.7188551,3.6869086 0 0 1 -0.02005,-0.012 z"
       inkscape:transform-center-y="-0.061717378"
       inkscape:transform-center-x="0.062231868"
       style="fill:#ececec;stroke-width:0.0306755"
       id="ellipse18" />
    <path
       d="m 58.055377,137.2278 a 3.9205813,3.7338868 0 0 0 3.920053,3.68726 3.9205813,3.7338868 0 0 0 3.92055,-3.73397 3.9205813,3.7338868 0 0 0 -0.291724,-1.41289 11.951448,4.8058728 0 0 1 -0.03596,0.0152 11.951448,4.8058728 0 0 1 -0.08241,0.034 11.951448,4.8058728 0 0 1 -0.08314,0.0335 11.951448,4.8058728 0 0 1 -0.08387,0.0333 11.951448,4.8058728 0 0 1 -0.08485,0.0328 11.951448,4.8058728 0 0 1 -0.08558,0.0328 11.951448,4.8058728 0 0 1 -0.08632,0.032 11.951448,4.8058728 0 0 1 -0.08729,0.032 11.951448,4.8058728 0 0 1 -0.08803,0.0315 11.951448,4.8058728 0 0 1 -0.08877,0.0311 11.951448,4.8058728 0 0 1 -0.08949,0.0308 11.951448,4.8058728 0 0 1 -0.09023,0.0306 11.951448,4.8058728 0 0 1 -0.09096,0.0301 11.951448,4.8058728 0 0 1 -0.0917,0.0296 11.951448,4.8058728 0 0 1 -0.09243,0.0293 11.951448,4.8058728 0 0 1 -0.09316,0.0291 11.951448,4.8058728 0 0 1 -0.0939,0.0286 11.951448,4.8058728 0 0 1 -0.09463,0.0284 11.951448,4.8058728 0 0 1 -0.09512,0.0279 11.951448,4.8058728 0 0 1 -0.09586,0.0274 11.951448,4.8058728 0 0 1 -0.09659,0.0272 11.951448,4.8058728 0 0 1 -0.09732,0.0269 11.951448,4.8058728 0 0 1 -0.09806,0.0262 11.951448,4.8058728 0 0 1 -0.09855,0.0262 11.951448,4.8058728 0 0 1 -0.09903,0.0254 11.951448,4.8058728 0 0 1 -0.09977,0.0252 11.951448,4.8058728 0 0 1 -0.100497,0.0247 11.951448,4.8058728 0 0 1 -0.100994,0.0245 11.951448,4.8058728 0 0 1 -0.101722,0.024 11.951448,4.8058728 0 0 1 -0.102215,0.0237 11.951448,4.8058728 0 0 1 -0.102702,0.023 11.951448,4.8058728 0 0 1 -0.103435,0.0227 11.951448,4.8058728 0 0 1 -0.103928,0.0225 11.951448,4.8058728 0 0 1 -0.10441,0.022 11.951448,4.8058728 0 0 1 -0.104907,0.0215 11.951448,4.8058728 0 0 1 -0.10539,0.021 11.951448,4.8058728 0 0 1 -0.106128,0.0208 11.951448,4.8058728 0 0 1 -0.106369,0.02 11.951448,4.8058728 0 0 1 -0.107103,0.02 11.951448,4.8058728 0 0 1 -0.107349,0.0193 11.951448,4.8058728 0 0 1 -0.108082,0.0191 11.951448,4.8058728 0 0 1 -0.108328,0.0186 11.951448,4.8058728 0 0 1 -0.108816,0.0181 11.951448,4.8058728 0 0 1 -0.109303,0.0176 11.951448,4.8058728 0 0 1 -0.109795,0.0174 11.951448,4.8058728 0 0 1 -0.110037,0.0166 11.951448,4.8058728 0 0 1 -0.110529,0.0166 11.951448,4.8058728 0 0 1 -0.111016,0.0159 11.951448,4.8058728 0 0 1 -0.111262,0.0154 11.951448,4.8058728 0 0 1 -0.111749,0.0152 11.951448,4.8058728 0 0 1 -0.112242,0.0147 11.951448,4.8058728 0 0 1 -0.112237,0.0142 11.951448,4.8058728 0 0 1 -0.112975,0.0137 11.951448,4.8058728 0 0 1 -0.11297,0.0132 11.951448,4.8058728 0 0 1 -0.113463,0.013 11.951448,4.8058728 0 0 1 -0.113708,0.0122 11.951448,4.8058728 0 0 1 -0.11395,0.012 11.951448,4.8058728 0 0 1 -0.114437,0.0115 11.951448,4.8058728 0 0 1 -0.114442,0.011 11.951448,4.8058728 0 0 1 -0.11493,0.0105 11.951448,4.8058728 0 0 1 -0.11517,0.0103 11.951448,4.8058728 0 0 1 -0.115176,0.01 11.951448,4.8058728 0 0 1 -0.115663,0.009 11.951448,4.8058728 0 0 1 -0.115909,0.009 11.951448,4.8058728 0 0 1 -0.115904,0.008 11.951448,4.8058728 0 0 1 -0.116155,0.008 11.951448,4.8058728 0 0 1 -0.116396,0.007 11.951448,4.8058728 0 0 1 -0.116638,0.007 11.951448,4.8058728 0 0 1 -0.116642,0.006 11.951448,4.8058728 0 0 1 -0.116884,0.006 11.951448,4.8058728 0 0 1 -0.117129,0.005 11.951448,4.8058728 0 0 1 -0.11713,0.005 11.951448,4.8058728 0 0 1 -0.117376,0.005 11.951448,4.8058728 0 0 1 -0.02224,7.5e-4 z"
       inkscape:transform-center-y="-0.061717484"
       inkscape:transform-center-x="0.062229541"
       style="fill:#ececec;stroke-width:0.0306755"
       id="ellipse20" />
    <rect
       ry="1.1382321"
       y="148.75356"
       x="50.967335"
       height="3.7941103"
       width="12.647035"
       id="rect22"
       style="fill:#ececec;stroke-width:0.125199" />
    <ellipse
       transform="scale(-1,1)"
       ry="1.14152"
       rx="1.1985961"
       cy="143.44415"
       cx="-56.076332"
       id="ellipse24"
       style="fill:#c87137;stroke-width:0.00937809"
       inkscape:transform-center-x="-0.019024256"
       inkscape:transform-center-y="-0.018862723" />
    <ellipse
       inkscape:transform-center-y="-0.018869757"
       inkscape:transform-center-x="-0.019025425"
       style="fill:#c87137;fill-opacity:1;stroke-width:0.00937809"
       id="ellipse26"
       cx="-59.149101"
       cy="143.44614"
       rx="1.1985961"
       ry="1.14152"
       transform="scale(-1,1)" />
    <ellipse
       ry="1.5176443"
       rx="0.88529247"
       cy="138.88634"
       cx="53.878693"
       id="path82"
       style="fill:#000000;fill-opacity:1;stroke-width:0.125199" />
    <ellipse
       style="fill:#000000;fill-opacity:1;stroke-width:0.125199"
       id="ellipse84"
       cx="64.144943"
       cy="138.63594"
       rx="0.88529247"
       ry="1.5176443" />
    <path
       sodipodi:nodetypes="sssssssss"
       d="m 26.677582,108.55805 274.577518,0.53454 c 2.94271,0.006 7.44991,2.90358 7.44991,5.8463 v 1.28476 c 0,2.94271 -4.5072,4.78294 -7.44991,4.77721 L 26.677582,120.46632 c -2.942706,-0.006 -5.311754,-2.36904 -5.311754,-5.31175 v -1.28476 c 0,-2.94272 2.369048,-5.31749 5.311754,-5.31176 z"
       style="fill:#a05a2c;fill-opacity:1;stroke:none;stroke-width:1.71942;stroke-linecap:round;stroke-miterlimit:4;stroke-dasharray:none;stroke-opacity:1"
       id="rect917" />
    <ellipse
       ry="2.3318355"
       rx="2.350352"
       cy="108.75536"
       cx="46.597561"
       id="path922"
       style="fill:#ff9955;fill-opacity:1;stroke:none;stroke-width:3.61805;stroke-linecap:round;stroke-miterlimit:4;stroke-dasharray:none;stroke-opacity:1" />
    <rect
       transform="scale(-1,1)"
       style="fill:#ff9955;fill-opacity:1;stroke:none;stroke-width:2.42908;stroke-linecap:round;stroke-miterlimit:4;stroke-dasharray:none;stroke-opacity:1"
       id="rect924"
       width="11.283638"
       height="6.0244536"
       x="-81.559326"
       y="106.2727"
       ry="3.0122268" />
    <ellipse
       transform="scale(-1,1)"
       style="fill:#ff9955;fill-opacity:1;stroke:none;stroke-width:3.61805;stroke-linecap:round;stroke-miterlimit:4;stroke-dasharray:none;stroke-opacity:1"
       id="ellipse926"
       cx="-66.02668"
       cy="108.60416"
       rx="2.350352"
       ry="2.3318355" />
    <rect
       ry="3.0122268"
       y="106.40633"
       x="-42.805244"
       height="6.0244536"
       width="11.283638"
       id="rect928"
       style="fill:#ff9955;fill-opacity:1;stroke:none;stroke-width:2.42908;stroke-linecap:round;stroke-miterlimit:4;stroke-dasharray:none;stroke-opacity:1"
       transform="scale(-1,1)" />
    <path
       sodipodi:type="star"
       style="fill:#803300;fill-opacity:1;stroke-width:0.264583"
       id="path938"
       sodipodi:sides="3"
       sodipodi:cx="26.192413"
       sodipodi:cy="98.622459"
       sodipodi:r1="15.814137"
       sodipodi:r2="7.9070683"
       sodipodi:arg1="2.6098686"
       sodipodi:arg2="3.6570661"
       inkscape:flatsided="true"
       inkscape:rounded="0"
       inkscape:randomized="0"
       d="M 12.561667,106.64055 26.06392,82.808844 39.951652,106.41799 Z"
       inkscape:transform-center-x="-1.8869772"
       inkscape:transform-center-y="-0.58074397"
       transform="matrix(0.42513647,-0.20777774,0.25205156,0.51572568,89.064311,12.502145)" />
    <path
       transform="matrix(0.40439422,-0.19764034,0.20311735,0.41560079,97.501199,21.327825)"
       inkscape:transform-center-y="-0.26022224"
       inkscape:transform-center-x="-1.6319919"
       d="M 12.561667,106.64055 26.06392,82.808844 39.951652,106.41799 Z"
       inkscape:randomized="0"
       inkscape:rounded="0"
       inkscape:flatsided="true"
       sodipodi:arg2="3.6570661"
       sodipodi:arg1="2.6098686"
       sodipodi:r2="7.9070683"
       sodipodi:r1="15.814137"
       sodipodi:cy="98.622459"
       sodipodi:cx="26.192413"
       sodipodi:sides="3"
       id="path940"
       style="fill:#803300;fill-opacity:1;stroke-width:0.264583"
       sodipodi:type="star" />
    <ellipse
       ry="8.2838087"
       rx="8.0941019"
       cy="60.690815"
       cx="142.25758"
       id="ellipse942"
       style="fill:#803300;fill-opacity:1;stroke-width:0.125199" />
    <ellipse
       style="fill:#552200;fill-opacity:1;stroke-width:0.0715209"
       id="ellipse944"
       cx="142.00465"
       cy="60.374638"
       rx="4.5529323"
       ry="4.8058739" />
    <ellipse
       style="fill:#803300;fill-opacity:1;stroke-width:0.125199"
       id="ellipse946"
       cx="112.53706"
       cy="60.933598"
       rx="8.0941019"
       ry="8.2838087" />
    <rect
       ry="4.047051"
       y="93.085457"
       x="126.82056"
       height="16.567616"
       width="8.0941019"
       id="rect948"
       style="fill:#803300;fill-opacity:1;stroke-width:0.102914" />
    <rect
       style="fill:#803300;fill-opacity:1;stroke-width:0.103715"
       id="rect950"
       width="8.2205725"
       height="16.567616"
       x="118.09921"
       y="93.085457"
       ry="4.1102862" />
    <rect
       style="fill:#803300;fill-opacity:1;stroke-width:0.139611"
       id="rect952"
       width="16.820557"
       height="27.444063"
       x="118.10175"
       y="76.309898"
       ry="0" />
    <ellipse
       ry="4.8058739"
       rx="4.5529323"
       cy="60.61742"
       cx="112.2841"
       id="ellipse954"
       style="fill:#552200;fill-opacity:1;stroke-width:0.0715209" />
    <ellipse
       style="fill:#803300;stroke-width:0.125199"
       id="ellipse956"
       cx="127.08113"
       cy="69.859917"
       rx="15.935265"
       ry="15.302912" />
    <rect
       style="fill:#a05a2c;fill-opacity:1;stroke-width:0.125199"
       id="rect958"
       width="10.370569"
       height="23.523485"
       x="121.52661"
       y="77.827553"
       ry="2.0235255" />
    <g
       id="g999"
       transform="rotate(180,125.51553,75.561986)">
      <path
         style="fill:none;stroke:#803300;stroke-width:4.73194;stroke-linecap:round;stroke-linejoin:miter;stroke-miterlimit:4;stroke-dasharray:none;stroke-opacity:1"
         d="M 122.63738,90.818975 99.461569,67.524245 107.56205,42.060155"
         id="path993" />
      <ellipse
         style="fill:#ff9955;fill-opacity:1;stroke:none;stroke-width:3.61805;stroke-linecap:round;stroke-miterlimit:4;stroke-dasharray:none;stroke-opacity:1"
         id="ellipse995"
         cx="115.88197"
         cy="37.829361"
         rx="2.350352"
         ry="2.3318355" />
      <rect
         transform="scale(-1,1)"
         style="fill:#ff9955;fill-opacity:1;stroke:none;stroke-width:2.42908;stroke-linecap:round;stroke-miterlimit:4;stroke-dasharray:none;stroke-opacity:1"
         id="rect997"
         width="11.283638"
         height="6.0244536"
         x="-112.08965"
         y="35.480324"
         ry="3.0122268" />
    </g>
    <g
       transform="matrix(1,0,0,-1,2.2036002,151.24001)"
       id="g991">
      <path
         id="path936"
         d="M 122.63738,90.818975 99.461569,67.524245 107.56205,42.060155"
         style="fill:none;stroke:#803300;stroke-width:4.73194;stroke-linecap:round;stroke-linejoin:miter;stroke-miterlimit:4;stroke-dasharray:none;stroke-opacity:1" />
      <ellipse
         ry="2.3318355"
         rx="2.350352"
         cy="37.829361"
         cx="115.88197"
         id="ellipse980"
         style="fill:#ff9955;fill-opacity:1;stroke:none;stroke-width:3.61805;stroke-linecap:round;stroke-miterlimit:4;stroke-dasharray:none;stroke-opacity:1" />
      <rect
         ry="3.0122268"
         y="35.480324"
         x="-112.08965"
         height="6.0244536"
         width="11.283638"
         id="rect986"
         style="fill:#ff9955;fill-opacity:1;stroke:none;stroke-width:2.42908;stroke-linecap:round;stroke-miterlimit:4;stroke-dasharray:none;stroke-opacity:1"
         transform="scale(-1,1)" />
    </g>
    <ellipse
       ry="11.842182"
       rx="12.434292"
       cy="77.781517"
       cx="126.86076"
       id="ellipse960"
       style="fill:#ff9955;stroke-width:0.0972882"
       inkscape:transform-center-x="0.19737021"
       inkscape:transform-center-y="-0.19574092" />
    <ellipse
       inkscape:transform-center-y="-0.091574616"
       inkscape:transform-center-x="0.09234654"
       style="fill:#ff9955;stroke-width:0.0455184"
       id="ellipse962"
       cx="121.76936"
       cy="65.963432"
       rx="5.8176365"
       ry="5.540606" />
    <ellipse
       ry="5.540606"
       rx="5.8176365"
       cy="65.963432"
       cx="131.88699"
       id="ellipse964"
       style="fill:#ff9955;stroke-width:0.0455184"
       inkscape:transform-center-x="0.092344182"
       inkscape:transform-center-y="-0.091574616" />
    <path
       id="path966"
       style="fill:#ececec;stroke-width:0.0306755"
       inkscape:transform-center-x="0.062231868"
       inkscape:transform-center-y="-0.061717378"
       d="m 118.49098,64.654395 a 3.9205813,3.7338868 0 0 0 -0.51572,1.85109 3.9205813,3.7338868 0 0 0 3.92055,3.73397 3.9205813,3.7338868 0 0 0 3.92055,-3.73397 3.9205813,3.7338868 0 0 0 -0.004,-0.1631 9.7188551,3.6869086 0 0 1 -0.0885,-0.003 9.7188551,3.6869086 0 0 1 -0.10613,-0.004 9.7188551,3.6869086 0 0 1 -0.10588,-0.005 9.7188551,3.6869086 0 0 1 -0.10588,-0.005 9.7188551,3.6869086 0 0 1 -0.10564,-0.005 9.7188551,3.6869086 0 0 1 -0.10539,-0.006 9.7188551,3.6869086 0 0 1 -0.10539,-0.006 9.7188551,3.6869086 0 0 1 -0.10515,-0.007 9.7188551,3.6869086 0 0 1 -0.1049,-0.007 9.7188551,3.6869086 0 0 1 -0.10466,-0.008 9.7188551,3.6869086 0 0 1 -0.10442,-0.008 9.7188551,3.6869086 0 0 1 -0.10417,-0.009 9.7188551,3.6869086 0 0 1 -0.10417,-0.009 9.7188551,3.6869086 0 0 1 -0.10368,-0.009 9.7188551,3.6869086 0 0 1 -0.10343,-0.01 9.7188551,3.6869086 0 0 1 -0.10295,-0.0103 9.7188551,3.6869086 0 0 1 -0.10295,-0.0108 9.7188551,3.6869086 0 0 1 -0.10245,-0.0112 9.7188551,3.6869086 0 0 1 -0.10222,-0.0115 9.7188551,3.6869086 0 0 1 -0.10197,-0.012 9.7188551,3.6869086 0 0 1 -0.10148,-0.0125 9.7188551,3.6869086 0 0 1 -0.10099,-0.013 9.7188551,3.6869086 0 0 1 -0.10074,-0.0132 9.7188551,3.6869086 0 0 1 -0.10026,-0.0137 9.7188551,3.6869086 0 0 1 -0.10001,-0.0142 9.7188551,3.6869086 0 0 1 -0.0995,-0.0147 9.7188551,3.6869086 0 0 1 -0.0993,-0.0149 9.7188551,3.6869086 0 0 1 -0.0986,-0.0154 9.7188551,3.6869086 0 0 1 -0.0983,-0.0156 9.7188551,3.6869086 0 0 1 -0.0976,-0.0161 9.7188551,3.6869086 0 0 1 -0.0973,-0.0166 9.7188551,3.6869086 0 0 1 -0.0968,-0.0171 9.7188551,3.6869086 0 0 1 -0.0963,-0.0174 9.7188551,3.6869086 0 0 1 -0.0959,-0.0179 9.7188551,3.6869086 0 0 1 -0.0951,-0.0181 9.7188551,3.6869086 0 0 1 -0.0949,-0.0186 9.7188551,3.6869086 0 0 1 -0.0941,-0.0191 9.7188551,3.6869086 0 0 1 -0.0937,-0.0193 9.7188551,3.6869086 0 0 1 -0.0929,-0.0198 9.7188551,3.6869086 0 0 1 -0.0927,-0.02 9.7188551,3.6869086 0 0 1 -0.0919,-0.0205 9.7188551,3.6869086 0 0 1 -0.0912,-0.021 9.7188551,3.6869086 0 0 1 -0.0907,-0.0213 9.7188551,3.6869086 0 0 1 -0.09,-0.0215 9.7188551,3.6869086 0 0 1 -0.0895,-0.0223 9.7188551,3.6869086 0 0 1 -0.0888,-0.0223 9.7188551,3.6869086 0 0 1 -0.0883,-0.0227 9.7188551,3.6869086 0 0 1 -0.0873,-0.0232 9.7188551,3.6869086 0 0 1 -0.0868,-0.0235 9.7188551,3.6869086 0 0 1 -0.0861,-0.024 9.7188551,3.6869086 0 0 1 -0.0856,-0.0242 9.7188551,3.6869086 0 0 1 -0.0846,-0.0245 9.7188551,3.6869086 0 0 1 -0.0841,-0.0249 9.7188551,3.6869086 0 0 1 -0.0831,-0.0254 9.7188551,3.6869086 0 0 1 -0.0827,-0.0257 9.7188551,3.6869086 0 0 1 -0.0817,-0.0259 9.7188551,3.6869086 0 0 1 -0.0812,-0.0262 9.7188551,3.6869086 0 0 1 -0.0802,-0.0267 9.7188551,3.6869086 0 0 1 -0.0795,-0.0271 9.7188551,3.6869086 0 0 1 -0.0787,-0.0271 9.7188551,3.6869086 0 0 1 -0.078,-0.0276 9.7188551,3.6869086 0 0 1 -0.077,-0.0281 9.7188551,3.6869086 0 0 1 -0.0763,-0.0281 9.7188551,3.6869086 0 0 1 -0.0756,-0.0286 9.7188551,3.6869086 0 0 1 -0.0746,-0.0289 9.7188551,3.6869086 0 0 1 -0.0739,-0.0293 9.7188551,3.6869086 0 0 1 -0.0729,-0.0296 9.7188551,3.6869086 0 0 1 -0.0721,-0.0298 9.7188551,3.6869086 0 0 1 -0.0712,-0.0301 9.7188551,3.6869086 0 0 1 -0.0704,-0.0303 9.7188551,3.6869086 0 0 1 -0.0694,-0.0308 9.7188551,3.6869086 0 0 1 -0.0685,-0.0308 9.7188551,3.6869086 0 0 1 -0.0677,-0.0313 9.7188551,3.6869086 0 0 1 -0.0668,-0.0315 9.7188551,3.6869086 0 0 1 -0.0658,-0.032 9.7188551,3.6869086 0 0 1 -0.065,-0.032 9.7188551,3.6869086 0 0 1 -0.0641,-0.0323 9.7188551,3.6869086 0 0 1 -0.0628,-0.0328 9.7188551,3.6869086 0 0 1 -0.0621,-0.0328 9.7188551,3.6869086 0 0 1 -0.0611,-0.0333 9.7188551,3.6869086 0 0 1 -0.0604,-0.0333 9.7188551,3.6869086 0 0 1 -0.0592,-0.0337 9.7188551,3.6869086 0 0 1 -0.0582,-0.034 9.7188551,3.6869086 0 0 1 -0.0201,-0.012 z" />
    <path
       id="path968"
       style="fill:#ececec;stroke-width:0.0306755"
       inkscape:transform-center-x="0.062229541"
       inkscape:transform-center-y="-0.061717484"
       d="m 127.33978,66.301795 a 3.9205813,3.7338868 0 0 0 3.92005,3.68726 3.9205813,3.7338868 0 0 0 3.92055,-3.73397 3.9205813,3.7338868 0 0 0 -0.29172,-1.41289 11.951448,4.8058728 0 0 1 -0.036,0.0152 11.951448,4.8058728 0 0 1 -0.0824,0.034 11.951448,4.8058728 0 0 1 -0.0831,0.0335 11.951448,4.8058728 0 0 1 -0.0839,0.0333 11.951448,4.8058728 0 0 1 -0.0848,0.0328 11.951448,4.8058728 0 0 1 -0.0856,0.0328 11.951448,4.8058728 0 0 1 -0.0863,0.032 11.951448,4.8058728 0 0 1 -0.0873,0.032 11.951448,4.8058728 0 0 1 -0.088,0.0315 11.951448,4.8058728 0 0 1 -0.0888,0.0311 11.951448,4.8058728 0 0 1 -0.0895,0.0308 11.951448,4.8058728 0 0 1 -0.0902,0.0306 11.951448,4.8058728 0 0 1 -0.091,0.0301 11.951448,4.8058728 0 0 1 -0.0917,0.0296 11.951448,4.8058728 0 0 1 -0.0924,0.0293 11.951448,4.8058728 0 0 1 -0.0932,0.0291 11.951448,4.8058728 0 0 1 -0.0939,0.0286 11.951448,4.8058728 0 0 1 -0.0946,0.0284 11.951448,4.8058728 0 0 1 -0.0951,0.0279 11.951448,4.8058728 0 0 1 -0.0959,0.0274 11.951448,4.8058728 0 0 1 -0.0966,0.0272 11.951448,4.8058728 0 0 1 -0.0973,0.0269 11.951448,4.8058728 0 0 1 -0.0981,0.0262 11.951448,4.8058728 0 0 1 -0.0985,0.0262 11.951448,4.8058728 0 0 1 -0.099,0.0254 11.951448,4.8058728 0 0 1 -0.0998,0.0252 11.951448,4.8058728 0 0 1 -0.1005,0.0247 11.951448,4.8058728 0 0 1 -0.10099,0.0245 11.951448,4.8058728 0 0 1 -0.10173,0.024 11.951448,4.8058728 0 0 1 -0.10221,0.0237 11.951448,4.8058728 0 0 1 -0.1027,0.023 11.951448,4.8058728 0 0 1 -0.10344,0.0227 11.951448,4.8058728 0 0 1 -0.10393,0.0225 11.951448,4.8058728 0 0 1 -0.10441,0.022 11.951448,4.8058728 0 0 1 -0.1049,0.0215 11.951448,4.8058728 0 0 1 -0.10539,0.021 11.951448,4.8058728 0 0 1 -0.10613,0.0208 11.951448,4.8058728 0 0 1 -0.10637,0.02 11.951448,4.8058728 0 0 1 -0.1071,0.02 11.951448,4.8058728 0 0 1 -0.10735,0.0193 11.951448,4.8058728 0 0 1 -0.10808,0.0191 11.951448,4.8058728 0 0 1 -0.10833,0.0186 11.951448,4.8058728 0 0 1 -0.10882,0.0181 11.951448,4.8058728 0 0 1 -0.1093,0.0176 11.951448,4.8058728 0 0 1 -0.1098,0.0174 11.951448,4.8058728 0 0 1 -0.11003,0.0166 11.951448,4.8058728 0 0 1 -0.11053,0.0166 11.951448,4.8058728 0 0 1 -0.11102,0.0159 11.951448,4.8058728 0 0 1 -0.11126,0.0154 11.951448,4.8058728 0 0 1 -0.11175,0.0152 11.951448,4.8058728 0 0 1 -0.11224,0.0147 11.951448,4.8058728 0 0 1 -0.11224,0.0142 11.951448,4.8058728 0 0 1 -0.11297,0.0137 11.951448,4.8058728 0 0 1 -0.11297,0.0132 11.951448,4.8058728 0 0 1 -0.11347,0.013 11.951448,4.8058728 0 0 1 -0.1137,0.0122 11.951448,4.8058728 0 0 1 -0.11395,0.012 11.951448,4.8058728 0 0 1 -0.11444,0.0115 11.951448,4.8058728 0 0 1 -0.11444,0.011 11.951448,4.8058728 0 0 1 -0.11493,0.0105 11.951448,4.8058728 0 0 1 -0.11517,0.0103 11.951448,4.8058728 0 0 1 -0.11518,0.01 11.951448,4.8058728 0 0 1 -0.11566,0.009 11.951448,4.8058728 0 0 1 -0.11591,0.009 11.951448,4.8058728 0 0 1 -0.11591,0.008 11.951448,4.8058728 0 0 1 -0.11615,0.008 11.951448,4.8058728 0 0 1 -0.1164,0.007 11.951448,4.8058728 0 0 1 -0.11663,0.007 11.951448,4.8058728 0 0 1 -0.11665,0.006 11.951448,4.8058728 0 0 1 -0.11688,0.006 11.951448,4.8058728 0 0 1 -0.11713,0.005 11.951448,4.8058728 0 0 1 -0.11713,0.005 11.951448,4.8058728 0 0 1 -0.11738,0.005 11.951448,4.8058728 0 0 1 -0.0222,7.5e-4 z" />
    <rect
       style="fill:#ececec;stroke-width:0.125199"
       id="rect970"
       width="12.647035"
       height="3.7941103"
       x="120.25174"
       y="77.827553"
       ry="1.1382321" />
    <ellipse
       inkscape:transform-center-y="-0.018862723"
       inkscape:transform-center-x="-0.019024256"
       style="fill:#c87137;stroke-width:0.00937809"
       id="ellipse972"
       cx="-125.36073"
       cy="72.51815"
       rx="1.1985961"
       ry="1.14152"
       transform="scale(-1,1)" />
    <ellipse
       transform="scale(-1,1)"
       ry="1.14152"
       rx="1.1985961"
       cy="72.520134"
       cx="-128.4335"
       id="ellipse974"
       style="fill:#c87137;fill-opacity:1;stroke-width:0.00937809"
       inkscape:transform-center-x="-0.019025425"
       inkscape:transform-center-y="-0.018869757" />
    <ellipse
       style="fill:#000000;fill-opacity:1;stroke-width:0.125199"
       id="ellipse976"
       cx="123.1631"
       cy="67.960335"
       rx="0.88529247"
       ry="1.5176443" />
    <ellipse
       ry="1.5176443"
       rx="0.88529247"
       cy="67.709938"
       cx="133.42935"
       id="ellipse978"
       style="fill:#000000;fill-opacity:1;stroke-width:0.125199" />
  </g>
</svg>
